<svg width="1363" height="163" viewBox="0 0 1363 163" fill="none" xmlns="http://www.w3.org/2000/svg">
<path d="M0 15C0 6.71573 6.71573 0 15 0H37V163H15C6.71573 163 0 156.284 0 148V15Z" fill="#424242"/>
<rect width="1097" height="163" transform="translate(37)" fill="#F0F0F0"/>
<path d="M101.906 53.9219L94.3945 51.2383V48.0859L104.602 52.375V54.6367L101.906 53.9219ZM94.3945 56.1719L101.918 53.4297L104.602 52.7852V55.0352L94.3945 59.3242V56.1719ZM119.543 54.918H115.195V52.1758H119.543C120.215 52.1758 120.762 52.0664 121.184 51.8477C121.605 51.6211 121.914 51.3086 122.109 50.9102C122.305 50.5117 122.402 50.0625 122.402 49.5625C122.402 49.0547 122.305 48.582 122.109 48.1445C121.914 47.707 121.605 47.3555 121.184 47.0898C120.762 46.8242 120.215 46.6914 119.543 46.6914H116.414V61H112.898V43.9375H119.543C120.879 43.9375 122.023 44.1797 122.977 44.6641C123.938 45.1406 124.672 45.8008 125.18 46.6445C125.688 47.4883 125.941 48.4531 125.941 49.5391C125.941 50.6406 125.688 51.5938 125.18 52.3984C124.672 53.2031 123.938 53.8242 122.977 54.2617C122.023 54.6992 120.879 54.918 119.543 54.918ZM133.828 61.2344C132.844 61.2344 131.961 61.0781 131.18 60.7656C130.398 60.4453 129.734 60.0039 129.188 59.4414C128.648 58.8789 128.234 58.2266 127.945 57.4844C127.656 56.7344 127.512 55.9375 127.512 55.0938V54.625C127.512 53.6641 127.648 52.7852 127.922 51.9883C128.195 51.1914 128.586 50.5 129.094 49.9141C129.609 49.3281 130.234 48.8789 130.969 48.5664C131.703 48.2461 132.531 48.0859 133.453 48.0859C134.352 48.0859 135.148 48.2344 135.844 48.5312C136.539 48.8281 137.121 49.25 137.59 49.7969C138.066 50.3438 138.426 51 138.668 51.7656C138.91 52.5234 139.031 53.3672 139.031 54.2969V55.7031H128.953V53.4531H135.715V53.1953C135.715 52.7266 135.629 52.3086 135.457 51.9414C135.293 51.5664 135.043 51.2695 134.707 51.0508C134.371 50.832 133.941 50.7227 133.418 50.7227C132.973 50.7227 132.59 50.8203 132.27 51.0156C131.949 51.2109 131.688 51.4844 131.484 51.8359C131.289 52.1875 131.141 52.6016 131.039 53.0781C130.945 53.5469 130.898 54.0625 130.898 54.625V55.0938C130.898 55.6016 130.969 56.0703 131.109 56.5C131.258 56.9297 131.465 57.3008 131.73 57.6133C132.004 57.9258 132.332 58.168 132.715 58.3398C133.105 58.5117 133.547 58.5977 134.039 58.5977C134.648 58.5977 135.215 58.4805 135.738 58.2461C136.27 58.0039 136.727 57.6406 137.109 57.1562L138.75 58.9375C138.484 59.3203 138.121 59.6875 137.66 60.0391C137.207 60.3906 136.66 60.6797 136.02 60.9062C135.379 61.125 134.648 61.2344 133.828 61.2344ZM131.449 46.5977L133.746 42.9883H137.414L134.191 46.5977H131.449ZM147.164 48.3203V50.7109H139.781V48.3203H147.164ZM141.609 45.1914H144.984V57.1797C144.984 57.5469 145.031 57.8281 145.125 58.0234C145.227 58.2188 145.375 58.3555 145.57 58.4336C145.766 58.5039 146.012 58.5391 146.309 58.5391C146.52 58.5391 146.707 58.5312 146.871 58.5156C147.043 58.4922 147.188 58.4688 147.305 58.4453L147.316 60.9297C147.027 61.0234 146.715 61.0977 146.379 61.1523C146.043 61.207 145.672 61.2344 145.266 61.2344C144.523 61.2344 143.875 61.1133 143.32 60.8711C142.773 60.6211 142.352 60.2227 142.055 59.6758C141.758 59.1289 141.609 58.4102 141.609 57.5195V45.1914ZM155.93 58.1406V52.4922C155.93 52.0859 155.863 51.7383 155.73 51.4492C155.598 51.1523 155.391 50.9219 155.109 50.7578C154.836 50.5938 154.48 50.5117 154.043 50.5117C153.668 50.5117 153.344 50.5781 153.07 50.7109C152.797 50.8359 152.586 51.0195 152.438 51.2617C152.289 51.4961 152.215 51.7734 152.215 52.0938H148.84C148.84 51.5547 148.965 51.043 149.215 50.5586C149.465 50.0742 149.828 49.6484 150.305 49.2812C150.781 48.9062 151.348 48.6133 152.004 48.4023C152.668 48.1914 153.41 48.0859 154.23 48.0859C155.215 48.0859 156.09 48.25 156.855 48.5781C157.621 48.9062 158.223 49.3984 158.66 50.0547C159.105 50.7109 159.328 51.5312 159.328 52.5156V57.9414C159.328 58.6367 159.371 59.207 159.457 59.6523C159.543 60.0898 159.668 60.4727 159.832 60.8008V61H156.422C156.258 60.6562 156.133 60.2266 156.047 59.7109C155.969 59.1875 155.93 58.6641 155.93 58.1406ZM156.375 53.2773L156.398 55.1875H154.512C154.066 55.1875 153.68 55.2383 153.352 55.3398C153.023 55.4414 152.754 55.5859 152.543 55.7734C152.332 55.9531 152.176 56.1641 152.074 56.4062C151.98 56.6484 151.934 56.9141 151.934 57.2031C151.934 57.4922 152 57.7539 152.133 57.9883C152.266 58.2148 152.457 58.3945 152.707 58.5273C152.957 58.6523 153.25 58.7148 153.586 58.7148C154.094 58.7148 154.535 58.6133 154.91 58.4102C155.285 58.207 155.574 57.957 155.777 57.6602C155.988 57.3633 156.098 57.082 156.105 56.8164L156.996 58.2461C156.871 58.5664 156.699 58.8984 156.48 59.2422C156.27 59.5859 156 59.9102 155.672 60.2148C155.344 60.5117 154.949 60.7578 154.488 60.9531C154.027 61.1406 153.48 61.2344 152.848 61.2344C152.043 61.2344 151.312 61.0742 150.656 60.7539C150.008 60.4258 149.492 59.9766 149.109 59.4062C148.734 58.8281 148.547 58.1719 148.547 57.4375C148.547 56.7734 148.672 56.1836 148.922 55.668C149.172 55.1523 149.539 54.7188 150.023 54.3672C150.516 54.0078 151.129 53.7383 151.863 53.5586C152.598 53.3711 153.449 53.2773 154.418 53.2773H156.375ZM165.492 43V61H162.105V43H165.492ZM174.117 61.2344C173.133 61.2344 172.25 61.0781 171.469 60.7656C170.688 60.4453 170.023 60.0039 169.477 59.4414C168.938 58.8789 168.523 58.2266 168.234 57.4844C167.945 56.7344 167.801 55.9375 167.801 55.0938V54.625C167.801 53.6641 167.938 52.7852 168.211 51.9883C168.484 51.1914 168.875 50.5 169.383 49.9141C169.898 49.3281 170.523 48.8789 171.258 48.5664C171.992 48.2461 172.82 48.0859 173.742 48.0859C174.641 48.0859 175.438 48.2344 176.133 48.5312C176.828 48.8281 177.41 49.25 177.879 49.7969C178.355 50.3438 178.715 51 178.957 51.7656C179.199 52.5234 179.32 53.3672 179.32 54.2969V55.7031H169.242V53.4531H176.004V53.1953C176.004 52.7266 175.918 52.3086 175.746 51.9414C175.582 51.5664 175.332 51.2695 174.996 51.0508C174.66 50.832 174.23 50.7227 173.707 50.7227C173.262 50.7227 172.879 50.8203 172.559 51.0156C172.238 51.2109 171.977 51.4844 171.773 51.8359C171.578 52.1875 171.43 52.6016 171.328 53.0781C171.234 53.5469 171.188 54.0625 171.188 54.625V55.0938C171.188 55.6016 171.258 56.0703 171.398 56.5C171.547 56.9297 171.754 57.3008 172.02 57.6133C172.293 57.9258 172.621 58.168 173.004 58.3398C173.395 58.5117 173.836 58.5977 174.328 58.5977C174.938 58.5977 175.504 58.4805 176.027 58.2461C176.559 58.0039 177.016 57.6406 177.398 57.1562L179.039 58.9375C178.773 59.3203 178.41 59.6875 177.949 60.0391C177.496 60.3906 176.949 60.6797 176.309 60.9062C175.668 61.125 174.938 61.2344 174.117 61.2344Z" fill="#888888"/>
<path d="M114.117 84.875H122.344V107.164C122.344 109.82 121.789 112.07 120.68 113.914C119.57 115.742 118.016 117.125 116.016 118.062C114.016 119 111.664 119.469 108.961 119.469C106.289 119.469 103.938 119 101.906 118.062C99.8906 117.125 98.3125 115.742 97.1719 113.914C96.0469 112.07 95.4844 109.82 95.4844 107.164V84.875H103.734V107.164C103.734 108.57 103.938 109.719 104.344 110.609C104.75 111.484 105.344 112.125 106.125 112.531C106.906 112.938 107.852 113.141 108.961 113.141C110.086 113.141 111.031 112.938 111.797 112.531C112.562 112.125 113.141 111.484 113.531 110.609C113.922 109.719 114.117 108.57 114.117 107.164V84.875ZM136.266 84.875V119H128.062V84.875H136.266ZM172.523 84.875H180.75V107.164C180.75 109.82 180.195 112.07 179.086 113.914C177.977 115.742 176.422 117.125 174.422 118.062C172.422 119 170.07 119.469 167.367 119.469C164.695 119.469 162.344 119 160.312 118.062C158.297 117.125 156.719 115.742 155.578 113.914C154.453 112.07 153.891 109.82 153.891 107.164V84.875H162.141V107.164C162.141 108.57 162.344 109.719 162.75 110.609C163.156 111.484 163.75 112.125 164.531 112.531C165.312 112.938 166.258 113.141 167.367 113.141C168.492 113.141 169.438 112.938 170.203 112.531C170.969 112.125 171.547 111.484 171.938 110.609C172.328 109.719 172.523 108.57 172.523 107.164V84.875ZM193.078 84.875L198.656 96.2188L204.234 84.875H213.609L204.094 101.797L213.867 119H204.398L198.656 107.445L192.914 119H183.422L193.219 101.797L183.68 84.875H193.078Z" fill="black"/>
<path d="M1134 0H1348C1356.28 0 1363 6.71573 1363 15V148C1363 156.284 1356.28 163 1348 163H1134V0Z" fill="#B76E79"/>
<path d="M1248.5 111.917C1244.51 111.917 1240.55 111.13 1236.86 109.601C1233.17 108.073 1229.82 105.832 1226.99 103.008C1221.29 97.3036 1218.08 89.567 1218.08 81.5C1218.08 73.433 1221.29 65.6964 1226.99 59.9922C1232.7 54.2879 1240.43 51.0833 1248.5 51.0833C1265.23 51.0833 1278.92 63.25 1278.92 78.4583C1278.92 83.2985 1276.99 87.9405 1273.57 91.363C1270.15 94.7856 1265.51 96.7083 1260.67 96.7083H1255.19C1254.28 96.7083 1253.67 97.3167 1253.67 98.2292C1253.67 98.5333 1253.97 98.8375 1253.97 99.1417C1255.19 100.662 1255.8 102.487 1255.8 104.312C1256.1 108.571 1252.76 111.917 1248.5 111.917ZM1248.5 57.1667C1242.05 57.1667 1235.86 59.7303 1231.29 64.2937C1226.73 68.8571 1224.17 75.0464 1224.17 81.5C1224.17 87.9536 1226.73 94.1429 1231.29 98.7063C1235.86 103.27 1242.05 105.833 1248.5 105.833C1249.41 105.833 1250.02 105.225 1250.02 104.312C1250.02 103.704 1249.72 103.4 1249.72 103.096C1248.5 101.575 1247.89 100.054 1247.89 98.2292C1247.89 93.9708 1251.24 90.625 1255.5 90.625H1260.67C1263.89 90.625 1266.99 89.3432 1269.27 87.0615C1271.55 84.7798 1272.83 81.6851 1272.83 78.4583C1272.83 66.5958 1261.88 57.1667 1248.5 57.1667ZM1231.77 75.4167C1234.2 75.4167 1236.33 77.5458 1236.33 79.9792C1236.33 82.4125 1234.2 84.5417 1231.77 84.5417C1229.34 84.5417 1227.21 82.4125 1227.21 79.9792C1227.21 77.5458 1229.34 75.4167 1231.77 75.4167ZM1240.9 63.25C1243.33 63.25 1245.46 65.3792 1245.46 67.8125C1245.46 70.2458 1243.33 72.375 1240.9 72.375C1238.46 72.375 1236.33 70.2458 1236.33 67.8125C1236.33 65.3792 1238.46 63.25 1240.9 63.25ZM1256.1 63.25C1258.54 63.25 1260.67 65.3792 1260.67 67.8125C1260.67 70.2458 1258.54 72.375 1256.1 72.375C1253.67 72.375 1251.54 70.2458 1251.54 67.8125C1251.54 65.3792 1253.67 63.25 1256.1 63.25ZM1265.23 75.4167C1267.66 75.4167 1269.79 77.5458 1269.79 79.9792C1269.79 82.4125 1267.66 84.5417 1265.23 84.5417C1262.8 84.5417 1260.67 82.4125 1260.67 79.9792C1260.67 77.5458 1262.8 75.4167 1265.23 75.4167Z" fill="white"/>
</svg>
